<svg width="65" height="65" viewBox="0 0 65 65" fill="none" xmlns="http://www.w3.org/2000/svg">
<g id="Mic">
<path id="Vector" d="M32.5 50.375C24.5781 50.375 18.2812 44.0781 18.2812 36.1562V26.4062H20.3125V36.1562C20.3125 42.8594 25.7969 48.3437 32.5 48.3437C39.2031 48.3437 44.6875 42.8594 44.6875 36.1562V26.4062H46.7188V36.1562C46.7188 44.0781 40.4219 50.375 32.5 50.375Z" fill="#607D95"/>
<path id="Vector_2" d="M18.2812 26.4062H20.3125V30.4688H18.2812V26.4062ZM44.6875 26.4062H46.7188V30.4688H44.6875V26.4062Z" fill="#4B6C85"/>
<path id="Vector_3" d="M34.5312 48.75V54.8438H30.4688V48.75M19.2969 58.9062V56.875C19.2969 55.6562 20.1094 54.8438 21.3281 54.8438H43.6719C44.8906 54.8438 45.7031 55.6562 45.7031 56.875V58.9062H19.2969Z" fill="#607D95"/>
<path id="Vector_4" d="M25.3906 54.8438H21.3281C20.1094 54.8438 19.2969 55.6562 19.2969 56.875V58.9062H23.3594V56.875C23.3594 55.6562 24.1719 54.8438 25.3906 54.8438Z" fill="#4B6C85"/>
<path id="Vector_5" d="M22.3438 28.4375H18.2812C17.0625 28.4375 16.25 27.625 16.25 26.4062C16.25 25.1875 17.0625 24.375 18.2812 24.375H22.3438V28.4375ZM46.7188 28.4375H42.6562V24.375H46.7188C47.9375 24.375 48.75 25.1875 48.75 26.4062C48.75 27.625 47.9375 28.4375 46.7188 28.4375Z" fill="#607D95"/>
<path id="Vector_6" d="M32.5 46.7188C26.8125 46.7188 22.3438 42.25 22.3438 36.5625V14.2188C22.3438 8.53125 26.8125 4.0625 32.5 4.0625C38.1875 4.0625 42.6562 8.53125 42.6562 14.2188V36.5625C42.6562 42.25 38.1875 46.7188 32.5 46.7188Z" fill="#EEF2FA"/>
<path id="Vector_7" d="M22.3438 28.4375V36.5625C22.3438 42.25 26.8125 46.7188 32.5 46.7188C38.1875 46.7188 42.6562 42.25 42.6562 36.5625V28.4375H22.3438Z" fill="#607D95"/>
<path id="Vector_8" d="M30.4688 31.4844H42.6562V28.4375H22.3438V36.5625C22.3438 37.1719 22.3438 37.7812 22.5469 38.3906C22.5469 38.5937 22.5469 38.7969 22.75 39C22.75 39.4063 22.9531 39.8125 23.1562 40.2187C23.1562 40.4219 23.3594 40.625 23.3594 40.8281L23.9688 42.0469C23.9688 42.25 24.1719 42.25 24.1719 42.4531C24.5781 42.8594 24.7812 43.2656 25.1875 43.6719L25.7969 44.2812C26 44.4844 26.2031 44.6875 26.6094 44.8906C26.8125 45.0938 27.0156 45.2969 27.2187 45.2969C27.4219 45.5 27.8281 45.7031 28.0313 45.7031C30.0625 46.7188 32.2969 47.125 34.9375 46.5156C39.6094 45.2969 42.8594 41.0312 42.8594 36.1562V33.7188C42.8594 39.4063 38.3906 43.875 32.7031 43.875H32.5C29.25 43.875 26.8125 41.0313 26.8125 37.9844V35.75C26.4062 33.3125 28.2344 31.4844 30.4688 31.4844Z" fill="#4B6C85"/>
<path id="Vector_9" d="M30.4688 25.3906C28.2344 25.3906 26.4062 23.5625 26.4062 21.3281V14.2188C26.4062 9.34375 29.8594 5.28125 34.5312 4.26562C33.3125 4.0625 31.8906 4.0625 30.4688 4.26562C25.5937 5.28125 22.3438 9.75 22.3438 14.625V28.4375H42.6562V25.3906H30.4688Z" fill="#D5E5F2"/>
<path id="Vector_10" d="M28.4375 9.14062C28.9984 9.14062 29.4531 8.68591 29.4531 8.125C29.4531 7.56409 28.9984 7.10938 28.4375 7.10938C27.8766 7.10938 27.4219 7.56409 27.4219 8.125C27.4219 8.68591 27.8766 9.14062 28.4375 9.14062Z" fill="#B0C4DA"/>
<path id="Vector_11" d="M32.5 9.14062C33.0609 9.14062 33.5156 8.68591 33.5156 8.125C33.5156 7.56409 33.0609 7.10938 32.5 7.10938C31.9391 7.10938 31.4844 7.56409 31.4844 8.125C31.4844 8.68591 31.9391 9.14062 32.5 9.14062Z" fill="#B0C4DA"/>
<path id="Vector_12" d="M36.5625 9.14062C37.1234 9.14062 37.5781 8.68591 37.5781 8.125C37.5781 7.56409 37.1234 7.10938 36.5625 7.10938C36.0016 7.10938 35.5469 7.56409 35.5469 8.125C35.5469 8.68591 36.0016 9.14062 36.5625 9.14062Z" fill="#B0C4DA"/>
<path id="Vector_13" d="M26.4062 13.2031C26.9672 13.2031 27.4219 12.7484 27.4219 12.1875C27.4219 11.6266 26.9672 11.1719 26.4062 11.1719C25.8453 11.1719 25.3906 11.6266 25.3906 12.1875C25.3906 12.7484 25.8453 13.2031 26.4062 13.2031Z" fill="#B0C4DA"/>
<path id="Vector_14" d="M30.4688 13.2031C31.0297 13.2031 31.4844 12.7484 31.4844 12.1875C31.4844 11.6266 31.0297 11.1719 30.4688 11.1719C29.9078 11.1719 29.4531 11.6266 29.4531 12.1875C29.4531 12.7484 29.9078 13.2031 30.4688 13.2031Z" fill="#B0C4DA"/>
<path id="Vector_15" d="M34.5312 13.2031C35.0922 13.2031 35.5469 12.7484 35.5469 12.1875C35.5469 11.6266 35.0922 11.1719 34.5312 11.1719C33.9703 11.1719 33.5156 11.6266 33.5156 12.1875C33.5156 12.7484 33.9703 13.2031 34.5312 13.2031Z" fill="#B0C4DA"/>
<path id="Vector_16" d="M30.4688 13.2031C31.0297 13.2031 31.4844 12.7484 31.4844 12.1875C31.4844 11.6266 31.0297 11.1719 30.4688 11.1719C29.9078 11.1719 29.4531 11.6266 29.4531 12.1875C29.4531 12.7484 29.9078 13.2031 30.4688 13.2031Z" fill="#B0C4DA"/>
<path id="Vector_17" d="M34.5312 13.2031C35.0922 13.2031 35.5469 12.7484 35.5469 12.1875C35.5469 11.6266 35.0922 11.1719 34.5312 11.1719C33.9703 11.1719 33.5156 11.6266 33.5156 12.1875C33.5156 12.7484 33.9703 13.2031 34.5312 13.2031Z" fill="#B0C4DA"/>
<path id="Vector_18" d="M38.5938 13.2031C39.1547 13.2031 39.6094 12.7484 39.6094 12.1875C39.6094 11.6266 39.1547 11.1719 38.5938 11.1719C38.0328 11.1719 37.5781 11.6266 37.5781 12.1875C37.5781 12.7484 38.0328 13.2031 38.5938 13.2031Z" fill="#B0C4DA"/>
<path id="Vector_19" d="M31.4844 17.2656C32.0453 17.2656 32.5 16.8109 32.5 16.25C32.5 15.6891 32.0453 15.2344 31.4844 15.2344C30.9235 15.2344 30.4688 15.6891 30.4688 16.25C30.4688 16.8109 30.9235 17.2656 31.4844 17.2656Z" fill="#B0C4DA"/>
<path id="Vector_20" d="M35.5469 17.2656C36.1078 17.2656 36.5625 16.8109 36.5625 16.25C36.5625 15.6891 36.1078 15.2344 35.5469 15.2344C34.986 15.2344 34.5312 15.6891 34.5312 16.25C34.5312 16.8109 34.986 17.2656 35.5469 17.2656Z" fill="#B0C4DA"/>
<path id="Vector_21" d="M39.6094 17.2656C40.1703 17.2656 40.625 16.8109 40.625 16.25C40.625 15.6891 40.1703 15.2344 39.6094 15.2344C39.0485 15.2344 38.5938 15.6891 38.5938 16.25C38.5938 16.8109 39.0485 17.2656 39.6094 17.2656Z" fill="#B0C4DA"/>
<path id="Vector_22" d="M23.3594 17.2656C23.9203 17.2656 24.375 16.8109 24.375 16.25C24.375 15.6891 23.9203 15.2344 23.3594 15.2344C22.7985 15.2344 22.3438 15.6891 22.3438 16.25C22.3438 16.8109 22.7985 17.2656 23.3594 17.2656Z" fill="#B0C4DA"/>
<path id="Vector_23" d="M27.4219 17.2656C27.9828 17.2656 28.4375 16.8109 28.4375 16.25C28.4375 15.6891 27.9828 15.2344 27.4219 15.2344C26.861 15.2344 26.4062 15.6891 26.4062 16.25C26.4062 16.8109 26.861 17.2656 27.4219 17.2656Z" fill="#B0C4DA"/>
<path id="Vector_24" d="M31.4844 17.2656C32.0453 17.2656 32.5 16.8109 32.5 16.25C32.5 15.6891 32.0453 15.2344 31.4844 15.2344C30.9235 15.2344 30.4688 15.6891 30.4688 16.25C30.4688 16.8109 30.9235 17.2656 31.4844 17.2656Z" fill="#B0C4DA"/>
<path id="Vector_25" d="M33.5156 21.3281C34.0765 21.3281 34.5312 20.8734 34.5312 20.3125C34.5312 19.7516 34.0765 19.2969 33.5156 19.2969C32.9547 19.2969 32.5 19.7516 32.5 20.3125C32.5 20.8734 32.9547 21.3281 33.5156 21.3281Z" fill="#B0C4DA"/>
<path id="Vector_26" d="M37.5781 21.3281C38.139 21.3281 38.5938 20.8734 38.5938 20.3125C38.5938 19.7516 38.139 19.2969 37.5781 19.2969C37.0172 19.2969 36.5625 19.7516 36.5625 20.3125C36.5625 20.8734 37.0172 21.3281 37.5781 21.3281Z" fill="#B0C4DA"/>
<path id="Vector_27" d="M41.6406 21.3281C42.2015 21.3281 42.6562 20.8734 42.6562 20.3125C42.6562 19.7516 42.2015 19.2969 41.6406 19.2969C41.0797 19.2969 40.625 19.7516 40.625 20.3125C40.625 20.8734 41.0797 21.3281 41.6406 21.3281Z" fill="#B0C4DA"/>
<path id="Vector_28" d="M25.3906 21.3281C25.9515 21.3281 26.4062 20.8734 26.4062 20.3125C26.4062 19.7516 25.9515 19.2969 25.3906 19.2969C24.8297 19.2969 24.375 19.7516 24.375 20.3125C24.375 20.8734 24.8297 21.3281 25.3906 21.3281Z" fill="#B0C4DA"/>
<path id="Vector_29" d="M29.4531 21.3281C30.014 21.3281 30.4688 20.8734 30.4688 20.3125C30.4688 19.7516 30.014 19.2969 29.4531 19.2969C28.8922 19.2969 28.4375 19.7516 28.4375 20.3125C28.4375 20.8734 28.8922 21.3281 29.4531 21.3281Z" fill="#B0C4DA"/>
<path id="Vector_30" d="M33.5156 21.3281C34.0765 21.3281 34.5312 20.8734 34.5312 20.3125C34.5312 19.7516 34.0765 19.2969 33.5156 19.2969C32.9547 19.2969 32.5 19.7516 32.5 20.3125C32.5 20.8734 32.9547 21.3281 33.5156 21.3281Z" fill="#B0C4DA"/>
<path id="Vector_31" d="M31.4844 25.3906C32.0453 25.3906 32.5 24.9359 32.5 24.375C32.5 23.8141 32.0453 23.3594 31.4844 23.3594C30.9235 23.3594 30.4688 23.8141 30.4688 24.375C30.4688 24.9359 30.9235 25.3906 31.4844 25.3906Z" fill="#B0C4DA"/>
<path id="Vector_32" d="M35.5469 25.3906C36.1078 25.3906 36.5625 24.9359 36.5625 24.375C36.5625 23.8141 36.1078 23.3594 35.5469 23.3594C34.986 23.3594 34.5312 23.8141 34.5312 24.375C34.5312 24.9359 34.986 25.3906 35.5469 25.3906Z" fill="#B0C4DA"/>
<path id="Vector_33" d="M39.6094 25.3906C40.1703 25.3906 40.625 24.9359 40.625 24.375C40.625 23.8141 40.1703 23.3594 39.6094 23.3594C39.0485 23.3594 38.5938 23.8141 38.5938 24.375C38.5938 24.9359 39.0485 25.3906 39.6094 25.3906Z" fill="#B0C4DA"/>
<path id="Vector_34" d="M23.3594 25.3906C23.9203 25.3906 24.375 24.9359 24.375 24.375C24.375 23.8141 23.9203 23.3594 23.3594 23.3594C22.7985 23.3594 22.3438 23.8141 22.3438 24.375C22.3438 24.9359 22.7985 25.3906 23.3594 25.3906Z" fill="#B0C4DA"/>
<path id="Vector_35" d="M27.4219 25.3906C27.9828 25.3906 28.4375 24.9359 28.4375 24.375C28.4375 23.8141 27.9828 23.3594 27.4219 23.3594C26.861 23.3594 26.4062 23.8141 26.4062 24.375C26.4062 24.9359 26.861 25.3906 27.4219 25.3906Z" fill="#B0C4DA"/>
<path id="Vector_36" d="M31.4844 25.3906C32.0453 25.3906 32.5 24.9359 32.5 24.375C32.5 23.8141 32.0453 23.3594 31.4844 23.3594C30.9235 23.3594 30.4688 23.8141 30.4688 24.375C30.4688 24.9359 30.9235 25.3906 31.4844 25.3906Z" fill="#B0C4DA"/>
<path id="Vector_37" d="M26 12.1875C26 11.7812 26.4062 11.375 26.8125 11.1719H26.6094C26 11.1719 25.5938 11.5781 25.5938 12.1875C25.5938 12.7969 26 13.2031 26.6094 13.2031H26.8125C26.2031 13 26 12.5938 26 12.1875ZM30.0625 12.1875C30.0625 11.7812 30.4688 11.375 30.875 11.1719H30.6719C30.0625 11.1719 29.6563 11.5781 29.6563 12.1875C29.6563 12.7969 30.0625 13.2031 30.6719 13.2031H30.875C30.2656 13 30.0625 12.5938 30.0625 12.1875ZM34.125 12.1875C34.125 11.7812 34.5313 11.375 34.9375 11.1719H34.7344C34.125 11.1719 33.7188 11.5781 33.7188 12.1875C33.7188 12.7969 34.125 13.2031 34.7344 13.2031H34.9375C34.3281 13 34.125 12.5938 34.125 12.1875ZM38.1875 12.1875C38.1875 11.7812 38.5938 11.375 39 11.1719H38.7969C38.1875 11.1719 37.7813 11.5781 37.7813 12.1875C37.7813 12.7969 38.1875 13.2031 38.7969 13.2031H39C38.3906 13 38.1875 12.5938 38.1875 12.1875ZM31.0781 16.25C31.0781 15.8438 31.4844 15.4375 31.8906 15.2344H31.6875C30.875 15.2344 30.4688 15.6406 30.4688 16.25C30.4688 16.8594 30.875 17.2656 31.4844 17.2656H31.6875C31.2813 17.0625 31.0781 16.6562 31.0781 16.25ZM35.1406 16.25C35.1406 15.8438 35.5469 15.4375 35.9531 15.2344H35.75C34.9375 15.2344 34.5312 15.6406 34.5312 16.25C34.5312 16.8594 34.9375 17.2656 35.5469 17.2656H35.75C35.3438 17.0625 35.1406 16.6562 35.1406 16.25ZM39.2031 16.25C39.2031 15.8438 39.6094 15.4375 40.0156 15.2344H39.8125C39 15.2344 38.5938 15.6406 38.5938 16.25C38.5938 16.8594 39 17.2656 39.6094 17.2656H39.8125C39.4062 17.0625 39.2031 16.6562 39.2031 16.25ZM27.0156 16.25C27.0156 15.8438 27.4219 15.4375 27.8281 15.2344H27.625C26.8125 15.2344 26.4062 15.6406 26.4062 16.25C26.4062 16.8594 26.8125 17.2656 27.4219 17.2656H27.625C27.2188 17.0625 27.0156 16.6562 27.0156 16.25ZM22.9531 16.25C22.9531 15.8438 23.3594 15.4375 23.7656 15.2344H23.5625C22.75 15.2344 22.3438 15.6406 22.3438 16.25C22.3438 16.8594 22.75 17.2656 23.3594 17.2656H23.5625C23.1563 17.0625 22.9531 16.6562 22.9531 16.25ZM24.9844 20.3125C24.9844 19.9062 25.3906 19.5 25.7969 19.2969H25.5938C24.7813 19.2969 24.375 19.7031 24.375 20.3125C24.375 20.9219 24.7812 21.3281 25.3906 21.3281H25.5938C25.1875 21.125 24.9844 20.7188 24.9844 20.3125ZM29.0469 20.3125C29.0469 19.9062 29.4531 19.5 29.8594 19.2969H29.6563C28.8438 19.2969 28.4375 19.7031 28.4375 20.3125C28.4375 20.9219 28.8438 21.3281 29.4531 21.3281H29.6563C29.25 21.125 29.0469 20.7188 29.0469 20.3125ZM33.1094 20.3125C33.1094 19.9062 33.5156 19.5 33.9219 19.2969H33.7188C32.9063 19.2969 32.5 19.7031 32.5 20.3125C32.5 20.9219 32.9062 21.3281 33.5156 21.3281H33.7188C33.3125 21.125 33.1094 20.7188 33.1094 20.3125ZM37.1719 20.3125C37.1719 19.9062 37.5781 19.5 37.9844 19.2969H37.7813C36.9688 19.2969 36.5625 19.7031 36.5625 20.3125C36.5625 20.9219 36.9688 21.3281 37.5781 21.3281H37.7813C37.375 21.125 37.1719 20.7188 37.1719 20.3125ZM41.2344 20.3125C41.2344 19.9062 41.6406 19.5 42.0469 19.2969H41.8438C41.0312 19.2969 40.625 19.7031 40.625 20.3125C40.625 20.9219 41.0312 21.3281 41.6406 21.3281H41.8438C41.4375 21.125 41.2344 20.7188 41.2344 20.3125ZM39.2031 24.375C39.2031 23.9688 39.6094 23.5625 40.0156 23.3594H39.8125C39.2031 23.3594 38.7969 23.7656 38.7969 24.375C38.7969 24.9844 39.2031 25.3906 39.8125 25.3906H40.0156C39.4063 25.1875 39.2031 24.7812 39.2031 24.375ZM35.1406 24.375C35.1406 23.9688 35.5469 23.5625 35.9531 23.3594H35.75C35.1406 23.3594 34.7344 23.7656 34.7344 24.375C34.7344 24.9844 35.1406 25.3906 35.75 25.3906H35.9531C35.3438 25.1875 35.1406 24.7812 35.1406 24.375ZM31.0781 24.375C31.0781 23.9688 31.4844 23.5625 31.8906 23.3594H31.6875C31.0781 23.3594 30.6719 23.7656 30.6719 24.375C30.6719 24.9844 31.0781 25.3906 31.6875 25.3906H31.8906C31.2812 25.1875 31.0781 24.7812 31.0781 24.375ZM27.0156 24.375C27.0156 23.9688 27.4219 23.5625 27.8281 23.3594H27.625C27.0156 23.3594 26.6094 23.7656 26.6094 24.375C26.6094 24.9844 27.0156 25.3906 27.625 25.3906H27.8281C27.2187 25.1875 27.0156 24.7812 27.0156 24.375ZM22.9531 24.375C22.9531 23.9688 23.3594 23.5625 23.7656 23.3594H23.5625C22.9531 23.3594 22.5469 23.7656 22.5469 24.375C22.5469 24.9844 22.9531 25.3906 23.5625 25.3906H23.7656C23.1562 25.1875 22.9531 24.7812 22.9531 24.375ZM28.0313 8.125C28.0313 7.71875 28.4375 7.3125 28.8437 7.10938H28.6406C28.0313 7.10938 27.625 7.51562 27.625 8.125C27.625 8.73438 28.0313 9.14062 28.6406 9.14062H28.8437C28.2344 8.9375 28.0313 8.53125 28.0313 8.125ZM32.0938 8.125C32.0938 7.71875 32.5 7.3125 32.9063 7.10938H32.7031C32.0938 7.10938 31.6875 7.51562 31.6875 8.125C31.6875 8.73438 32.0938 9.14062 32.7031 9.14062H32.9063C32.2969 8.9375 32.0938 8.53125 32.0938 8.125ZM36.1562 8.125C36.1562 7.71875 36.5625 7.3125 36.9688 7.10938H36.7656C36.1563 7.10938 35.75 7.51562 35.75 8.125C35.75 8.73438 36.1563 9.14062 36.7656 9.14062H36.9688C36.3594 8.9375 36.1562 8.53125 36.1562 8.125Z" fill="#99B5CE"/>
</g>
</svg>
