<svg width="75" height="75" viewBox="0 0 75 75" fill="none" xmlns="http://www.w3.org/2000/svg">
<path d="M49.0937 25.9063C48.8032 25.6134 48.4576 25.3809 48.0768 25.2222C47.696 25.0636 47.2875 24.9819 46.875 24.9819C46.4624 24.9819 46.054 25.0636 45.6732 25.2222C45.2924 25.3809 44.9467 25.6134 44.6562 25.9063L37.5 33.0938L30.3437 25.9063C29.7553 25.3178 28.9572 24.9872 28.125 24.9872C27.2928 24.9872 26.4947 25.3178 25.9062 25.9063C25.3178 26.4947 24.9872 27.2928 24.9872 28.125C24.9872 28.9572 25.3178 29.7553 25.9062 30.3438L33.0937 37.5L25.9062 44.6563C25.6133 44.9468 25.3808 45.2924 25.2222 45.6732C25.0635 46.054 24.9819 46.4625 24.9819 46.875C24.9819 47.2875 25.0635 47.696 25.2222 48.0768C25.3808 48.4576 25.6133 48.8032 25.9062 49.0938C26.1967 49.3867 26.5424 49.6191 26.9232 49.7778C27.304 49.9364 27.7124 50.0181 28.125 50.0181C28.5375 50.0181 28.946 49.9364 29.3268 49.7778C29.7076 49.6191 30.0532 49.3867 30.3437 49.0938L37.5 41.9063L44.6562 49.0938C44.9467 49.3867 45.2924 49.6191 45.6732 49.7778C46.054 49.9364 46.4624 50.0181 46.875 50.0181C47.2875 50.0181 47.696 49.9364 48.0768 49.7778C48.4576 49.6191 48.8032 49.3867 49.0937 49.0938C49.3866 48.8032 49.6191 48.4576 49.7778 48.0768C49.9364 47.696 50.0181 47.2875 50.0181 46.875C50.0181 46.4625 49.9364 46.054 49.7778 45.6732C49.6191 45.2924 49.3866 44.9468 49.0937 44.6563L41.9062 37.5L49.0937 30.3438C49.3866 30.0532 49.6191 29.7076 49.7778 29.3268C49.9364 28.946 50.0181 28.5375 50.0181 28.125C50.0181 27.7125 49.9364 27.304 49.7778 26.9232C49.6191 26.5424 49.3866 26.1968 49.0937 25.9063ZM59.5937 15.4063C56.711 12.4216 53.2627 10.0409 49.4501 8.40309C45.6375 6.7653 41.5369 5.90323 37.3875 5.86718C33.2382 5.83112 29.1232 6.6218 25.2827 8.19308C21.4421 9.76435 17.953 12.0848 15.0189 15.0189C12.0847 17.9531 9.76432 21.4422 8.19305 25.2827C6.62177 29.1232 5.83109 33.2382 5.86715 37.3875C5.9032 41.5369 6.76527 45.6375 8.40305 49.4501C10.0408 53.2628 12.4215 56.711 15.4062 59.5938C18.2889 62.5784 21.7372 64.9591 25.5498 66.5969C29.3625 68.2347 33.4631 69.0968 37.6124 69.1328C41.7618 69.1689 45.8768 68.3782 49.7173 66.8069C53.5578 65.2357 57.0469 62.9152 59.9811 59.9811C62.9152 57.047 65.2356 53.5578 66.8069 49.7173C68.3782 45.8768 69.1689 41.7618 69.1328 37.6125C69.0967 33.4631 68.2347 29.3625 66.5969 25.5499C64.9591 21.7372 62.5784 18.289 59.5937 15.4063ZM55.1875 55.1875C51.1001 59.2794 45.7204 61.8276 39.965 62.3978C34.2095 62.9681 28.4344 61.5252 23.6235 58.3149C18.8126 55.1047 15.2636 50.3257 13.5811 44.7921C11.8987 39.2586 12.1869 33.3129 14.3966 27.9681C16.6063 22.6232 20.6008 18.2098 25.6996 15.4799C30.7984 12.7499 36.686 11.8723 42.3594 12.9965C48.0327 14.1207 53.1407 17.1772 56.8132 21.6452C60.4857 26.1132 62.4954 31.7164 62.5 37.5C62.5111 40.7853 61.8706 44.0401 60.6154 47.0762C59.3602 50.1123 57.5153 52.8692 55.1875 55.1875Z" fill="black"/>
</svg>
