<svg width="65" height="123" viewBox="0 0 65 123" fill="none" xmlns="http://www.w3.org/2000/svg">
<path id="Vector" d="M63.5813 114.549C64.4903 115.481 65 116.739 65 118.049C65 119.359 64.4903 120.617 63.5813 121.549C63.1343 122.009 62.6015 122.374 62.0138 122.623C61.4262 122.872 60.7955 123 60.1584 123C59.5214 123 58.8907 122.872 58.303 122.623C57.7154 122.374 57.1826 122.009 56.7356 121.549L1.41871 65.0004C0.509666 64.0677 0 62.8102 0 61.5C0 60.1898 0.509666 58.9323 1.41871 57.9997L56.7356 1.45064C57.1826 0.991204 57.7154 0.626344 58.303 0.377299C58.8907 0.128255 59.5214 0 60.1584 0C60.7955 0 61.4262 0.128255 62.0138 0.377299C62.6015 0.626344 63.1343 0.991204 63.5813 1.45064C64.4903 2.38334 65 3.64082 65 4.95099C65 6.26116 64.4903 7.51865 63.5813 8.45134L13.132 61.5036L63.5813 114.549Z" fill="black"/>
</svg>
