<svg width="65" height="123" viewBox="0 0 65 123" fill="none" xmlns="http://www.w3.org/2000/svg">
<path id="Vector" d="M1.41871 8.45134C0.509668 7.51865 0 6.26117 0 4.951C0 3.64082 0.509668 2.38334 1.41871 1.45065C1.86572 0.991203 2.39855 0.626343 2.98618 0.377296C3.57381 0.128258 4.20451 0 4.84157 0C5.47864 0 6.10934 0.128258 6.69697 0.377296C7.2846 0.626343 7.81743 0.991203 8.26444 1.45065L63.5813 57.9996C64.4903 58.9323 65 60.1898 65 61.5C65 62.8102 64.4903 64.0677 63.5813 65.0003L8.26444 121.549C7.81743 122.009 7.2846 122.374 6.69697 122.623C6.10934 122.872 5.47864 123 4.84157 123C4.20451 123 3.57381 122.872 2.98618 122.623C2.39855 122.374 1.86572 122.009 1.41871 121.549C0.509668 120.617 0 119.359 0 118.049C0 116.739 0.509668 115.481 1.41871 114.549L51.868 61.4964L1.41871 8.45134Z" fill="#4285F4"/>
</svg>
